<mxfile host="Electron" modified="2024-04-15T13:44:15.310Z" agent="Mozilla/5.0 (Windows NT 10.0; Win64; x64) AppleWebKit/537.36 (KHTML, like Gecko) draw.io/24.2.5 Chrome/120.0.6099.109 Electron/28.1.0 Safari/537.36" etag="a26DTXDb7sfqoBhoR7A2" version="24.2.5" type="device">
  <diagram name="Page-1" id="hBgQWiliWzFYraZSrk2Q">
    <mxGraphModel dx="454" dy="450" grid="1" gridSize="10" guides="1" tooltips="1" connect="1" arrows="1" fold="1" page="1" pageScale="1" pageWidth="1920" pageHeight="1200" math="0" shadow="0">
      <root>
        <mxCell id="0" />
        <mxCell id="1" parent="0" />
        <mxCell id="sgHpyDjpw01S7iKvmFFo-54" value="" style="rounded=0;whiteSpace=wrap;html=1;fillColor=#dae8fc;strokeColor=#6c8ebf;" parent="1" vertex="1">
          <mxGeometry x="410" y="950" width="120" height="180" as="geometry" />
        </mxCell>
        <mxCell id="sgHpyDjpw01S7iKvmFFo-16" value="" style="endArrow=none;html=1;rounded=0;strokeWidth=3;" parent="1" edge="1">
          <mxGeometry width="50" height="50" relative="1" as="geometry">
            <mxPoint x="349" y="1140" as="sourcePoint" />
            <mxPoint x="349" y="80" as="targetPoint" />
          </mxGeometry>
        </mxCell>
        <mxCell id="sgHpyDjpw01S7iKvmFFo-7" value="" style="rounded=0;whiteSpace=wrap;html=1;fillColor=#dae8fc;strokeColor=#6c8ebf;" parent="1" vertex="1">
          <mxGeometry x="360" y="240" width="260" height="180" as="geometry" />
        </mxCell>
        <mxCell id="sgHpyDjpw01S7iKvmFFo-1" value="" style="group" parent="1" vertex="1" connectable="0">
          <mxGeometry x="390" y="100" width="40" height="40" as="geometry" />
        </mxCell>
        <mxCell id="1DyrcDDvenJ038iTFa64-3" value="" style="endArrow=none;html=1;rounded=0;" parent="sgHpyDjpw01S7iKvmFFo-1" edge="1">
          <mxGeometry width="50" height="50" relative="1" as="geometry">
            <mxPoint x="20" y="40" as="sourcePoint" />
            <mxPoint x="40" as="targetPoint" />
          </mxGeometry>
        </mxCell>
        <mxCell id="1DyrcDDvenJ038iTFa64-4" value="" style="endArrow=none;html=1;rounded=0;" parent="sgHpyDjpw01S7iKvmFFo-1" edge="1">
          <mxGeometry width="50" height="50" relative="1" as="geometry">
            <mxPoint x="20" y="40" as="sourcePoint" />
            <mxPoint as="targetPoint" />
          </mxGeometry>
        </mxCell>
        <mxCell id="1DyrcDDvenJ038iTFa64-5" value="" style="endArrow=none;html=1;rounded=0;" parent="sgHpyDjpw01S7iKvmFFo-1" edge="1">
          <mxGeometry width="50" height="50" relative="1" as="geometry">
            <mxPoint x="20" y="40" as="sourcePoint" />
            <mxPoint x="20" as="targetPoint" />
          </mxGeometry>
        </mxCell>
        <mxCell id="sgHpyDjpw01S7iKvmFFo-18" style="edgeStyle=orthogonalEdgeStyle;rounded=0;orthogonalLoop=1;jettySize=auto;html=1;exitX=0.75;exitY=1;exitDx=0;exitDy=0;entryX=0.75;entryY=0;entryDx=0;entryDy=0;" parent="1" source="sgHpyDjpw01S7iKvmFFo-2" target="sgHpyDjpw01S7iKvmFFo-3" edge="1">
          <mxGeometry relative="1" as="geometry" />
        </mxCell>
        <mxCell id="sgHpyDjpw01S7iKvmFFo-19" style="edgeStyle=orthogonalEdgeStyle;rounded=0;orthogonalLoop=1;jettySize=auto;html=1;exitX=0.5;exitY=0;exitDx=0;exitDy=0;entryX=0.5;entryY=1;entryDx=0;entryDy=0;startArrow=classic;startFill=1;" parent="1" source="sgHpyDjpw01S7iKvmFFo-2" target="sgHpyDjpw01S7iKvmFFo-8" edge="1">
          <mxGeometry relative="1" as="geometry" />
        </mxCell>
        <mxCell id="sgHpyDjpw01S7iKvmFFo-2" value="Duplexer" style="rounded=0;whiteSpace=wrap;html=1;" parent="1" vertex="1">
          <mxGeometry x="370" y="310" width="80" height="40" as="geometry" />
        </mxCell>
        <mxCell id="sgHpyDjpw01S7iKvmFFo-17" style="edgeStyle=orthogonalEdgeStyle;rounded=0;orthogonalLoop=1;jettySize=auto;html=1;exitX=0.25;exitY=0;exitDx=0;exitDy=0;entryX=0.25;entryY=1;entryDx=0;entryDy=0;" parent="1" source="sgHpyDjpw01S7iKvmFFo-3" target="sgHpyDjpw01S7iKvmFFo-2" edge="1">
          <mxGeometry relative="1" as="geometry" />
        </mxCell>
        <mxCell id="sgHpyDjpw01S7iKvmFFo-3" value="RF Board" style="rounded=0;whiteSpace=wrap;html=1;" parent="1" vertex="1">
          <mxGeometry x="370" y="370" width="80" height="40" as="geometry" />
        </mxCell>
        <mxCell id="sgHpyDjpw01S7iKvmFFo-175" style="rounded=0;orthogonalLoop=1;jettySize=auto;html=1;exitX=0;exitY=1;exitDx=0;exitDy=0;entryX=1;entryY=0;entryDx=0;entryDy=0;startArrow=classic;startFill=1;" parent="1" source="sgHpyDjpw01S7iKvmFFo-4" target="sgHpyDjpw01S7iKvmFFo-3" edge="1">
          <mxGeometry relative="1" as="geometry" />
        </mxCell>
        <mxCell id="sgHpyDjpw01S7iKvmFFo-4" value="Control/interface" style="rounded=0;whiteSpace=wrap;html=1;direction=east;" parent="1" vertex="1">
          <mxGeometry x="470" y="310" width="140" height="40" as="geometry" />
        </mxCell>
        <mxCell id="sgHpyDjpw01S7iKvmFFo-20" style="edgeStyle=orthogonalEdgeStyle;rounded=0;orthogonalLoop=1;jettySize=auto;html=1;exitX=0;exitY=0.5;exitDx=0;exitDy=0;entryX=1;entryY=0.5;entryDx=0;entryDy=0;" parent="1" source="sgHpyDjpw01S7iKvmFFo-5" target="sgHpyDjpw01S7iKvmFFo-3" edge="1">
          <mxGeometry relative="1" as="geometry" />
        </mxCell>
        <mxCell id="sgHpyDjpw01S7iKvmFFo-21" style="edgeStyle=orthogonalEdgeStyle;rounded=0;orthogonalLoop=1;jettySize=auto;html=1;exitX=0.5;exitY=0;exitDx=0;exitDy=0;entryX=0.25;entryY=1;entryDx=0;entryDy=0;" parent="1" source="sgHpyDjpw01S7iKvmFFo-5" target="sgHpyDjpw01S7iKvmFFo-4" edge="1">
          <mxGeometry relative="1" as="geometry" />
        </mxCell>
        <mxCell id="sgHpyDjpw01S7iKvmFFo-22" style="edgeStyle=orthogonalEdgeStyle;rounded=0;orthogonalLoop=1;jettySize=auto;html=1;exitX=1;exitY=0.5;exitDx=0;exitDy=0;entryX=0;entryY=0.5;entryDx=0;entryDy=0;" parent="1" source="sgHpyDjpw01S7iKvmFFo-5" target="sgHpyDjpw01S7iKvmFFo-6" edge="1">
          <mxGeometry relative="1" as="geometry" />
        </mxCell>
        <mxCell id="sgHpyDjpw01S7iKvmFFo-5" value="PSU" style="rounded=0;whiteSpace=wrap;html=1;" parent="1" vertex="1">
          <mxGeometry x="470" y="370" width="60" height="40" as="geometry" />
        </mxCell>
        <mxCell id="sgHpyDjpw01S7iKvmFFo-23" style="edgeStyle=orthogonalEdgeStyle;rounded=0;orthogonalLoop=1;jettySize=auto;html=1;exitX=0.5;exitY=0;exitDx=0;exitDy=0;entryX=0.75;entryY=1;entryDx=0;entryDy=0;" parent="1" source="sgHpyDjpw01S7iKvmFFo-6" target="sgHpyDjpw01S7iKvmFFo-4" edge="1">
          <mxGeometry relative="1" as="geometry" />
        </mxCell>
        <mxCell id="sgHpyDjpw01S7iKvmFFo-63" style="edgeStyle=orthogonalEdgeStyle;rounded=0;orthogonalLoop=1;jettySize=auto;html=1;exitX=0.5;exitY=1;exitDx=0;exitDy=0;entryX=0;entryY=0.5;entryDx=0;entryDy=0;startArrow=classic;startFill=1;" parent="1" source="sgHpyDjpw01S7iKvmFFo-6" target="sgHpyDjpw01S7iKvmFFo-56" edge="1">
          <mxGeometry relative="1" as="geometry">
            <Array as="points">
              <mxPoint x="580" y="450" />
              <mxPoint x="390" y="450" />
              <mxPoint x="390" y="980" />
            </Array>
          </mxGeometry>
        </mxCell>
        <mxCell id="sgHpyDjpw01S7iKvmFFo-6" value="Eth/Fiber" style="rounded=0;whiteSpace=wrap;html=1;" parent="1" vertex="1">
          <mxGeometry x="550" y="370" width="60" height="40" as="geometry" />
        </mxCell>
        <mxCell id="sgHpyDjpw01S7iKvmFFo-42" style="edgeStyle=orthogonalEdgeStyle;rounded=0;orthogonalLoop=1;jettySize=auto;html=1;exitX=0.5;exitY=0;exitDx=0;exitDy=0;endArrow=none;endFill=0;" parent="1" source="sgHpyDjpw01S7iKvmFFo-8" edge="1">
          <mxGeometry relative="1" as="geometry">
            <mxPoint x="409.7142857142858" y="140" as="targetPoint" />
          </mxGeometry>
        </mxCell>
        <mxCell id="sgHpyDjpw01S7iKvmFFo-8" value="Surge Protection" style="rounded=0;whiteSpace=wrap;html=1;" parent="1" vertex="1">
          <mxGeometry x="370" y="250" width="80" height="40" as="geometry" />
        </mxCell>
        <mxCell id="sgHpyDjpw01S7iKvmFFo-9" value="Remote Radio Unit (RRU)" style="text;html=1;align=right;verticalAlign=middle;whiteSpace=wrap;rounded=0;" parent="1" vertex="1">
          <mxGeometry x="450" y="216" width="170" height="30" as="geometry" />
        </mxCell>
        <mxCell id="sgHpyDjpw01S7iKvmFFo-24" value="" style="endArrow=none;html=1;rounded=0;strokeWidth=3;" parent="1" edge="1">
          <mxGeometry width="50" height="50" relative="1" as="geometry">
            <mxPoint x="290" y="1140" as="sourcePoint" />
            <mxPoint x="290" y="80" as="targetPoint" />
          </mxGeometry>
        </mxCell>
        <mxCell id="sgHpyDjpw01S7iKvmFFo-25" value="" style="endArrow=none;html=1;rounded=0;strokeWidth=3;" parent="1" edge="1">
          <mxGeometry width="50" height="50" relative="1" as="geometry">
            <mxPoint x="350" y="100" as="sourcePoint" />
            <mxPoint x="290" y="100" as="targetPoint" />
          </mxGeometry>
        </mxCell>
        <mxCell id="sgHpyDjpw01S7iKvmFFo-26" value="" style="endArrow=none;html=1;rounded=0;strokeWidth=3;" parent="1" edge="1">
          <mxGeometry width="50" height="50" relative="1" as="geometry">
            <mxPoint x="350" y="180" as="sourcePoint" />
            <mxPoint x="290" y="180" as="targetPoint" />
          </mxGeometry>
        </mxCell>
        <mxCell id="sgHpyDjpw01S7iKvmFFo-27" value="" style="endArrow=none;html=1;rounded=0;strokeWidth=3;" parent="1" edge="1">
          <mxGeometry width="50" height="50" relative="1" as="geometry">
            <mxPoint x="350" y="100" as="sourcePoint" />
            <mxPoint x="290" y="180" as="targetPoint" />
          </mxGeometry>
        </mxCell>
        <mxCell id="sgHpyDjpw01S7iKvmFFo-28" value="" style="endArrow=none;html=1;rounded=0;strokeWidth=3;" parent="1" edge="1">
          <mxGeometry width="50" height="50" relative="1" as="geometry">
            <mxPoint x="350" y="260" as="sourcePoint" />
            <mxPoint x="290" y="260" as="targetPoint" />
          </mxGeometry>
        </mxCell>
        <mxCell id="sgHpyDjpw01S7iKvmFFo-29" value="" style="endArrow=none;html=1;rounded=0;strokeWidth=3;" parent="1" edge="1">
          <mxGeometry width="50" height="50" relative="1" as="geometry">
            <mxPoint x="350" y="180" as="sourcePoint" />
            <mxPoint x="290" y="260" as="targetPoint" />
          </mxGeometry>
        </mxCell>
        <mxCell id="sgHpyDjpw01S7iKvmFFo-30" value="" style="endArrow=none;html=1;rounded=0;strokeWidth=3;" parent="1" edge="1">
          <mxGeometry width="50" height="50" relative="1" as="geometry">
            <mxPoint x="350" y="340" as="sourcePoint" />
            <mxPoint x="290" y="340" as="targetPoint" />
          </mxGeometry>
        </mxCell>
        <mxCell id="sgHpyDjpw01S7iKvmFFo-31" value="" style="endArrow=none;html=1;rounded=0;strokeWidth=3;" parent="1" edge="1">
          <mxGeometry width="50" height="50" relative="1" as="geometry">
            <mxPoint x="350" y="260" as="sourcePoint" />
            <mxPoint x="290" y="340" as="targetPoint" />
          </mxGeometry>
        </mxCell>
        <mxCell id="sgHpyDjpw01S7iKvmFFo-32" value="" style="endArrow=none;html=1;rounded=0;strokeWidth=3;" parent="1" edge="1">
          <mxGeometry width="50" height="50" relative="1" as="geometry">
            <mxPoint x="350" y="419.35" as="sourcePoint" />
            <mxPoint x="290" y="419.35" as="targetPoint" />
          </mxGeometry>
        </mxCell>
        <mxCell id="sgHpyDjpw01S7iKvmFFo-33" value="" style="endArrow=none;html=1;rounded=0;strokeWidth=3;" parent="1" edge="1">
          <mxGeometry width="50" height="50" relative="1" as="geometry">
            <mxPoint x="350" y="339.35" as="sourcePoint" />
            <mxPoint x="290" y="419.35" as="targetPoint" />
          </mxGeometry>
        </mxCell>
        <mxCell id="sgHpyDjpw01S7iKvmFFo-34" value="" style="endArrow=none;html=1;rounded=0;strokeWidth=3;" parent="1" edge="1">
          <mxGeometry width="50" height="50" relative="1" as="geometry">
            <mxPoint x="350" y="500" as="sourcePoint" />
            <mxPoint x="290" y="500" as="targetPoint" />
          </mxGeometry>
        </mxCell>
        <mxCell id="sgHpyDjpw01S7iKvmFFo-35" value="" style="endArrow=none;html=1;rounded=0;strokeWidth=3;" parent="1" edge="1">
          <mxGeometry width="50" height="50" relative="1" as="geometry">
            <mxPoint x="350" y="420" as="sourcePoint" />
            <mxPoint x="290" y="500" as="targetPoint" />
          </mxGeometry>
        </mxCell>
        <mxCell id="sgHpyDjpw01S7iKvmFFo-36" value="" style="endArrow=none;html=1;rounded=0;strokeWidth=3;" parent="1" edge="1">
          <mxGeometry width="50" height="50" relative="1" as="geometry">
            <mxPoint x="350" y="580" as="sourcePoint" />
            <mxPoint x="290" y="580" as="targetPoint" />
          </mxGeometry>
        </mxCell>
        <mxCell id="sgHpyDjpw01S7iKvmFFo-37" value="" style="endArrow=none;html=1;rounded=0;strokeWidth=3;" parent="1" edge="1">
          <mxGeometry width="50" height="50" relative="1" as="geometry">
            <mxPoint x="350" y="500" as="sourcePoint" />
            <mxPoint x="290" y="580" as="targetPoint" />
          </mxGeometry>
        </mxCell>
        <mxCell id="sgHpyDjpw01S7iKvmFFo-38" value="" style="endArrow=none;html=1;rounded=0;strokeWidth=3;" parent="1" edge="1">
          <mxGeometry width="50" height="50" relative="1" as="geometry">
            <mxPoint x="350" y="660" as="sourcePoint" />
            <mxPoint x="290" y="660" as="targetPoint" />
          </mxGeometry>
        </mxCell>
        <mxCell id="sgHpyDjpw01S7iKvmFFo-39" value="" style="endArrow=none;html=1;rounded=0;strokeWidth=3;" parent="1" edge="1">
          <mxGeometry width="50" height="50" relative="1" as="geometry">
            <mxPoint x="350" y="580" as="sourcePoint" />
            <mxPoint x="290" y="660" as="targetPoint" />
          </mxGeometry>
        </mxCell>
        <mxCell id="sgHpyDjpw01S7iKvmFFo-40" value="" style="endArrow=none;html=1;rounded=0;strokeWidth=3;" parent="1" edge="1">
          <mxGeometry width="50" height="50" relative="1" as="geometry">
            <mxPoint x="350" y="740" as="sourcePoint" />
            <mxPoint x="290" y="740" as="targetPoint" />
          </mxGeometry>
        </mxCell>
        <mxCell id="sgHpyDjpw01S7iKvmFFo-41" value="" style="endArrow=none;html=1;rounded=0;strokeWidth=3;" parent="1" edge="1">
          <mxGeometry width="50" height="50" relative="1" as="geometry">
            <mxPoint x="350" y="660" as="sourcePoint" />
            <mxPoint x="290" y="740" as="targetPoint" />
          </mxGeometry>
        </mxCell>
        <mxCell id="sgHpyDjpw01S7iKvmFFo-43" value="" style="endArrow=none;html=1;rounded=0;strokeWidth=3;" parent="1" edge="1">
          <mxGeometry width="50" height="50" relative="1" as="geometry">
            <mxPoint x="350" y="820" as="sourcePoint" />
            <mxPoint x="290" y="820" as="targetPoint" />
          </mxGeometry>
        </mxCell>
        <mxCell id="sgHpyDjpw01S7iKvmFFo-44" value="" style="endArrow=none;html=1;rounded=0;strokeWidth=3;" parent="1" edge="1">
          <mxGeometry width="50" height="50" relative="1" as="geometry">
            <mxPoint x="350" y="740" as="sourcePoint" />
            <mxPoint x="290" y="820" as="targetPoint" />
          </mxGeometry>
        </mxCell>
        <mxCell id="sgHpyDjpw01S7iKvmFFo-45" value="" style="endArrow=none;html=1;rounded=0;strokeWidth=3;" parent="1" edge="1">
          <mxGeometry width="50" height="50" relative="1" as="geometry">
            <mxPoint x="350" y="900" as="sourcePoint" />
            <mxPoint x="290" y="900" as="targetPoint" />
          </mxGeometry>
        </mxCell>
        <mxCell id="sgHpyDjpw01S7iKvmFFo-46" value="" style="endArrow=none;html=1;rounded=0;strokeWidth=3;" parent="1" edge="1">
          <mxGeometry width="50" height="50" relative="1" as="geometry">
            <mxPoint x="350" y="820" as="sourcePoint" />
            <mxPoint x="290" y="900" as="targetPoint" />
          </mxGeometry>
        </mxCell>
        <mxCell id="sgHpyDjpw01S7iKvmFFo-47" value="" style="endArrow=none;html=1;rounded=0;strokeWidth=3;" parent="1" edge="1">
          <mxGeometry width="50" height="50" relative="1" as="geometry">
            <mxPoint x="350" y="980" as="sourcePoint" />
            <mxPoint x="290" y="980" as="targetPoint" />
          </mxGeometry>
        </mxCell>
        <mxCell id="sgHpyDjpw01S7iKvmFFo-48" value="" style="endArrow=none;html=1;rounded=0;strokeWidth=3;" parent="1" edge="1">
          <mxGeometry width="50" height="50" relative="1" as="geometry">
            <mxPoint x="350" y="900" as="sourcePoint" />
            <mxPoint x="290" y="980" as="targetPoint" />
          </mxGeometry>
        </mxCell>
        <mxCell id="sgHpyDjpw01S7iKvmFFo-49" value="" style="endArrow=none;html=1;rounded=0;strokeWidth=3;" parent="1" edge="1">
          <mxGeometry width="50" height="50" relative="1" as="geometry">
            <mxPoint x="350" y="1060" as="sourcePoint" />
            <mxPoint x="290" y="1060" as="targetPoint" />
          </mxGeometry>
        </mxCell>
        <mxCell id="sgHpyDjpw01S7iKvmFFo-50" value="" style="endArrow=none;html=1;rounded=0;strokeWidth=3;" parent="1" edge="1">
          <mxGeometry width="50" height="50" relative="1" as="geometry">
            <mxPoint x="350" y="980" as="sourcePoint" />
            <mxPoint x="290" y="1060" as="targetPoint" />
          </mxGeometry>
        </mxCell>
        <mxCell id="sgHpyDjpw01S7iKvmFFo-52" value="" style="endArrow=none;html=1;rounded=0;strokeWidth=3;" parent="1" edge="1">
          <mxGeometry width="50" height="50" relative="1" as="geometry">
            <mxPoint x="350" y="1060" as="sourcePoint" />
            <mxPoint x="290" y="1140" as="targetPoint" />
          </mxGeometry>
        </mxCell>
        <mxCell id="sgHpyDjpw01S7iKvmFFo-53" value="" style="endArrow=none;html=1;rounded=0;" parent="1" edge="1">
          <mxGeometry width="50" height="50" relative="1" as="geometry">
            <mxPoint x="240" y="1140" as="sourcePoint" />
            <mxPoint x="720" y="1140" as="targetPoint" />
          </mxGeometry>
        </mxCell>
        <mxCell id="sgHpyDjpw01S7iKvmFFo-55" value="Baseband Unit (BBU)" style="text;html=1;align=right;verticalAlign=middle;whiteSpace=wrap;rounded=0;" parent="1" vertex="1">
          <mxGeometry x="390" y="926" width="140" height="30" as="geometry" />
        </mxCell>
        <mxCell id="sgHpyDjpw01S7iKvmFFo-68" style="edgeStyle=orthogonalEdgeStyle;rounded=0;orthogonalLoop=1;jettySize=auto;html=1;exitX=0.5;exitY=1;exitDx=0;exitDy=0;entryX=0.5;entryY=0;entryDx=0;entryDy=0;startArrow=classic;startFill=1;" parent="1" source="sgHpyDjpw01S7iKvmFFo-56" target="sgHpyDjpw01S7iKvmFFo-57" edge="1">
          <mxGeometry relative="1" as="geometry" />
        </mxCell>
        <mxCell id="sgHpyDjpw01S7iKvmFFo-56" value="Eth/Fiber" style="rounded=0;whiteSpace=wrap;html=1;" parent="1" vertex="1">
          <mxGeometry x="440" y="960" width="60" height="40" as="geometry" />
        </mxCell>
        <mxCell id="sgHpyDjpw01S7iKvmFFo-57" value="Server" style="rounded=0;whiteSpace=wrap;html=1;" parent="1" vertex="1">
          <mxGeometry x="440" y="1020" width="60" height="40" as="geometry" />
        </mxCell>
        <mxCell id="sgHpyDjpw01S7iKvmFFo-69" value="" style="edgeStyle=orthogonalEdgeStyle;rounded=0;orthogonalLoop=1;jettySize=auto;html=1;startArrow=classic;startFill=1;exitX=0.55;exitY=0.95;exitDx=0;exitDy=0;exitPerimeter=0;" parent="1" source="sgHpyDjpw01S7iKvmFFo-59" target="sgHpyDjpw01S7iKvmFFo-57" edge="1">
          <mxGeometry relative="1" as="geometry">
            <Array as="points">
              <mxPoint x="656" y="1040" />
            </Array>
          </mxGeometry>
        </mxCell>
        <mxCell id="sgHpyDjpw01S7iKvmFFo-59" value="Internet" style="ellipse;shape=cloud;whiteSpace=wrap;html=1;" parent="1" vertex="1">
          <mxGeometry x="590" y="940" width="120" height="80" as="geometry" />
        </mxCell>
        <mxCell id="sgHpyDjpw01S7iKvmFFo-166" style="edgeStyle=orthogonalEdgeStyle;rounded=0;orthogonalLoop=1;jettySize=auto;html=1;exitX=0;exitY=0.5;exitDx=0;exitDy=0;" parent="1" source="sgHpyDjpw01S7iKvmFFo-66" edge="1">
          <mxGeometry relative="1" as="geometry">
            <mxPoint x="370" y="864.8235294117646" as="targetPoint" />
          </mxGeometry>
        </mxCell>
        <mxCell id="sgHpyDjpw01S7iKvmFFo-66" value="Power supply" style="text;html=1;align=center;verticalAlign=middle;whiteSpace=wrap;rounded=0;" parent="1" vertex="1">
          <mxGeometry x="430" y="850" width="80" height="30" as="geometry" />
        </mxCell>
        <mxCell id="sgHpyDjpw01S7iKvmFFo-165" style="edgeStyle=orthogonalEdgeStyle;rounded=0;orthogonalLoop=1;jettySize=auto;html=1;exitX=0;exitY=0.5;exitDx=0;exitDy=0;" parent="1" source="sgHpyDjpw01S7iKvmFFo-67" edge="1">
          <mxGeometry relative="1" as="geometry">
            <mxPoint x="390" y="794.8235294117646" as="targetPoint" />
          </mxGeometry>
        </mxCell>
        <mxCell id="sgHpyDjpw01S7iKvmFFo-67" value="Gigabit, duplex optical fiber" style="text;html=1;align=center;verticalAlign=middle;whiteSpace=wrap;rounded=0;" parent="1" vertex="1">
          <mxGeometry x="425" y="780" width="90" height="30" as="geometry" />
        </mxCell>
        <mxCell id="sgHpyDjpw01S7iKvmFFo-170" style="edgeStyle=orthogonalEdgeStyle;rounded=0;orthogonalLoop=1;jettySize=auto;html=1;exitX=0.5;exitY=0;exitDx=0;exitDy=0;entryX=0.5;entryY=1;entryDx=0;entryDy=0;" parent="1" source="sgHpyDjpw01S7iKvmFFo-71" target="sgHpyDjpw01S7iKvmFFo-57" edge="1">
          <mxGeometry relative="1" as="geometry" />
        </mxCell>
        <mxCell id="sgHpyDjpw01S7iKvmFFo-71" value="Power Mgmt" style="rounded=0;whiteSpace=wrap;html=1;" parent="1" vertex="1">
          <mxGeometry x="440" y="1080" width="60" height="40" as="geometry" />
        </mxCell>
        <mxCell id="sgHpyDjpw01S7iKvmFFo-65" style="edgeStyle=orthogonalEdgeStyle;rounded=0;orthogonalLoop=1;jettySize=auto;html=1;exitX=0;exitY=0.5;exitDx=0;exitDy=0;entryX=0.5;entryY=1;entryDx=0;entryDy=0;" parent="1" source="sgHpyDjpw01S7iKvmFFo-71" target="sgHpyDjpw01S7iKvmFFo-5" edge="1">
          <mxGeometry relative="1" as="geometry">
            <Array as="points">
              <mxPoint x="370" y="1100" />
              <mxPoint x="370" y="440" />
              <mxPoint x="500" y="440" />
            </Array>
          </mxGeometry>
        </mxCell>
        <mxCell id="sgHpyDjpw01S7iKvmFFo-73" value="" style="endArrow=none;html=1;rounded=0;strokeWidth=0.2;" parent="1" edge="1">
          <mxGeometry width="50" height="50" relative="1" as="geometry">
            <mxPoint x="240" y="1150" as="sourcePoint" />
            <mxPoint x="250" y="1140" as="targetPoint" />
          </mxGeometry>
        </mxCell>
        <mxCell id="sgHpyDjpw01S7iKvmFFo-74" value="" style="endArrow=none;html=1;rounded=0;strokeWidth=0.2;" parent="1" edge="1">
          <mxGeometry width="50" height="50" relative="1" as="geometry">
            <mxPoint x="250" y="1150" as="sourcePoint" />
            <mxPoint x="260" y="1140" as="targetPoint" />
          </mxGeometry>
        </mxCell>
        <mxCell id="sgHpyDjpw01S7iKvmFFo-75" value="" style="endArrow=none;html=1;rounded=0;strokeWidth=0.2;" parent="1" edge="1">
          <mxGeometry width="50" height="50" relative="1" as="geometry">
            <mxPoint x="260" y="1150" as="sourcePoint" />
            <mxPoint x="270" y="1140" as="targetPoint" />
          </mxGeometry>
        </mxCell>
        <mxCell id="sgHpyDjpw01S7iKvmFFo-76" value="" style="endArrow=none;html=1;rounded=0;strokeWidth=0.2;" parent="1" edge="1">
          <mxGeometry width="50" height="50" relative="1" as="geometry">
            <mxPoint x="270" y="1150" as="sourcePoint" />
            <mxPoint x="280" y="1140" as="targetPoint" />
          </mxGeometry>
        </mxCell>
        <mxCell id="sgHpyDjpw01S7iKvmFFo-77" value="" style="endArrow=none;html=1;rounded=0;strokeWidth=0.2;" parent="1" edge="1">
          <mxGeometry width="50" height="50" relative="1" as="geometry">
            <mxPoint x="280" y="1150" as="sourcePoint" />
            <mxPoint x="290" y="1140" as="targetPoint" />
          </mxGeometry>
        </mxCell>
        <mxCell id="sgHpyDjpw01S7iKvmFFo-78" value="" style="endArrow=none;html=1;rounded=0;strokeWidth=0.2;" parent="1" edge="1">
          <mxGeometry width="50" height="50" relative="1" as="geometry">
            <mxPoint x="290" y="1150" as="sourcePoint" />
            <mxPoint x="300" y="1140" as="targetPoint" />
          </mxGeometry>
        </mxCell>
        <mxCell id="sgHpyDjpw01S7iKvmFFo-79" value="" style="endArrow=none;html=1;rounded=0;strokeWidth=0.2;" parent="1" edge="1">
          <mxGeometry width="50" height="50" relative="1" as="geometry">
            <mxPoint x="300" y="1150" as="sourcePoint" />
            <mxPoint x="310" y="1140" as="targetPoint" />
          </mxGeometry>
        </mxCell>
        <mxCell id="sgHpyDjpw01S7iKvmFFo-80" value="" style="endArrow=none;html=1;rounded=0;strokeWidth=0.2;" parent="1" edge="1">
          <mxGeometry width="50" height="50" relative="1" as="geometry">
            <mxPoint x="310" y="1150" as="sourcePoint" />
            <mxPoint x="320" y="1140" as="targetPoint" />
          </mxGeometry>
        </mxCell>
        <mxCell id="sgHpyDjpw01S7iKvmFFo-81" value="" style="endArrow=none;html=1;rounded=0;strokeWidth=0.2;" parent="1" edge="1">
          <mxGeometry width="50" height="50" relative="1" as="geometry">
            <mxPoint x="320" y="1150" as="sourcePoint" />
            <mxPoint x="330" y="1140" as="targetPoint" />
          </mxGeometry>
        </mxCell>
        <mxCell id="sgHpyDjpw01S7iKvmFFo-82" value="" style="endArrow=none;html=1;rounded=0;strokeWidth=0.2;" parent="1" edge="1">
          <mxGeometry width="50" height="50" relative="1" as="geometry">
            <mxPoint x="330" y="1150" as="sourcePoint" />
            <mxPoint x="340" y="1140" as="targetPoint" />
          </mxGeometry>
        </mxCell>
        <mxCell id="sgHpyDjpw01S7iKvmFFo-83" value="" style="endArrow=none;html=1;rounded=0;strokeWidth=0.2;" parent="1" edge="1">
          <mxGeometry width="50" height="50" relative="1" as="geometry">
            <mxPoint x="340" y="1150" as="sourcePoint" />
            <mxPoint x="350" y="1140" as="targetPoint" />
          </mxGeometry>
        </mxCell>
        <mxCell id="sgHpyDjpw01S7iKvmFFo-84" value="" style="endArrow=none;html=1;rounded=0;strokeWidth=0.2;" parent="1" edge="1">
          <mxGeometry width="50" height="50" relative="1" as="geometry">
            <mxPoint x="350" y="1150" as="sourcePoint" />
            <mxPoint x="360" y="1140" as="targetPoint" />
          </mxGeometry>
        </mxCell>
        <mxCell id="sgHpyDjpw01S7iKvmFFo-85" value="" style="endArrow=none;html=1;rounded=0;strokeWidth=0.2;" parent="1" edge="1">
          <mxGeometry width="50" height="50" relative="1" as="geometry">
            <mxPoint x="360" y="1150" as="sourcePoint" />
            <mxPoint x="370" y="1140" as="targetPoint" />
          </mxGeometry>
        </mxCell>
        <mxCell id="sgHpyDjpw01S7iKvmFFo-86" value="" style="endArrow=none;html=1;rounded=0;strokeWidth=0.2;" parent="1" edge="1">
          <mxGeometry width="50" height="50" relative="1" as="geometry">
            <mxPoint x="370" y="1150" as="sourcePoint" />
            <mxPoint x="380" y="1140" as="targetPoint" />
          </mxGeometry>
        </mxCell>
        <mxCell id="sgHpyDjpw01S7iKvmFFo-87" value="" style="endArrow=none;html=1;rounded=0;strokeWidth=0.2;" parent="1" edge="1">
          <mxGeometry width="50" height="50" relative="1" as="geometry">
            <mxPoint x="380" y="1150" as="sourcePoint" />
            <mxPoint x="390" y="1140" as="targetPoint" />
          </mxGeometry>
        </mxCell>
        <mxCell id="sgHpyDjpw01S7iKvmFFo-88" value="" style="endArrow=none;html=1;rounded=0;strokeWidth=0.2;" parent="1" edge="1">
          <mxGeometry width="50" height="50" relative="1" as="geometry">
            <mxPoint x="390" y="1150" as="sourcePoint" />
            <mxPoint x="400" y="1140" as="targetPoint" />
          </mxGeometry>
        </mxCell>
        <mxCell id="sgHpyDjpw01S7iKvmFFo-89" value="" style="endArrow=none;html=1;rounded=0;strokeWidth=0.2;" parent="1" edge="1">
          <mxGeometry width="50" height="50" relative="1" as="geometry">
            <mxPoint x="400" y="1150" as="sourcePoint" />
            <mxPoint x="410" y="1140" as="targetPoint" />
          </mxGeometry>
        </mxCell>
        <mxCell id="sgHpyDjpw01S7iKvmFFo-90" value="" style="endArrow=none;html=1;rounded=0;strokeWidth=0.2;" parent="1" edge="1">
          <mxGeometry width="50" height="50" relative="1" as="geometry">
            <mxPoint x="410" y="1150" as="sourcePoint" />
            <mxPoint x="420" y="1140" as="targetPoint" />
          </mxGeometry>
        </mxCell>
        <mxCell id="sgHpyDjpw01S7iKvmFFo-91" value="" style="endArrow=none;html=1;rounded=0;strokeWidth=0.2;" parent="1" edge="1">
          <mxGeometry width="50" height="50" relative="1" as="geometry">
            <mxPoint x="420" y="1150" as="sourcePoint" />
            <mxPoint x="430" y="1140" as="targetPoint" />
          </mxGeometry>
        </mxCell>
        <mxCell id="sgHpyDjpw01S7iKvmFFo-92" value="" style="endArrow=none;html=1;rounded=0;strokeWidth=0.2;" parent="1" edge="1">
          <mxGeometry width="50" height="50" relative="1" as="geometry">
            <mxPoint x="430" y="1150" as="sourcePoint" />
            <mxPoint x="440" y="1140" as="targetPoint" />
          </mxGeometry>
        </mxCell>
        <mxCell id="sgHpyDjpw01S7iKvmFFo-93" value="" style="endArrow=none;html=1;rounded=0;strokeWidth=0.2;" parent="1" edge="1">
          <mxGeometry width="50" height="50" relative="1" as="geometry">
            <mxPoint x="440" y="1150" as="sourcePoint" />
            <mxPoint x="450" y="1140" as="targetPoint" />
          </mxGeometry>
        </mxCell>
        <mxCell id="sgHpyDjpw01S7iKvmFFo-94" value="" style="endArrow=none;html=1;rounded=0;strokeWidth=0.2;" parent="1" edge="1">
          <mxGeometry width="50" height="50" relative="1" as="geometry">
            <mxPoint x="450" y="1150" as="sourcePoint" />
            <mxPoint x="460" y="1140" as="targetPoint" />
          </mxGeometry>
        </mxCell>
        <mxCell id="sgHpyDjpw01S7iKvmFFo-95" value="" style="endArrow=none;html=1;rounded=0;strokeWidth=0.2;" parent="1" edge="1">
          <mxGeometry width="50" height="50" relative="1" as="geometry">
            <mxPoint x="460" y="1150" as="sourcePoint" />
            <mxPoint x="470" y="1140" as="targetPoint" />
          </mxGeometry>
        </mxCell>
        <mxCell id="sgHpyDjpw01S7iKvmFFo-96" value="" style="endArrow=none;html=1;rounded=0;strokeWidth=0.2;" parent="1" edge="1">
          <mxGeometry width="50" height="50" relative="1" as="geometry">
            <mxPoint x="470" y="1150" as="sourcePoint" />
            <mxPoint x="480" y="1140" as="targetPoint" />
          </mxGeometry>
        </mxCell>
        <mxCell id="sgHpyDjpw01S7iKvmFFo-97" value="" style="endArrow=none;html=1;rounded=0;strokeWidth=0.2;" parent="1" edge="1">
          <mxGeometry width="50" height="50" relative="1" as="geometry">
            <mxPoint x="480" y="1150" as="sourcePoint" />
            <mxPoint x="490" y="1140" as="targetPoint" />
          </mxGeometry>
        </mxCell>
        <mxCell id="sgHpyDjpw01S7iKvmFFo-98" value="" style="endArrow=none;html=1;rounded=0;strokeWidth=0.2;" parent="1" edge="1">
          <mxGeometry width="50" height="50" relative="1" as="geometry">
            <mxPoint x="490" y="1150" as="sourcePoint" />
            <mxPoint x="500" y="1140" as="targetPoint" />
          </mxGeometry>
        </mxCell>
        <mxCell id="sgHpyDjpw01S7iKvmFFo-99" value="" style="endArrow=none;html=1;rounded=0;strokeWidth=0.2;" parent="1" edge="1">
          <mxGeometry width="50" height="50" relative="1" as="geometry">
            <mxPoint x="500" y="1150" as="sourcePoint" />
            <mxPoint x="510" y="1140" as="targetPoint" />
          </mxGeometry>
        </mxCell>
        <mxCell id="sgHpyDjpw01S7iKvmFFo-100" value="" style="endArrow=none;html=1;rounded=0;strokeWidth=0.2;" parent="1" edge="1">
          <mxGeometry width="50" height="50" relative="1" as="geometry">
            <mxPoint x="510" y="1150" as="sourcePoint" />
            <mxPoint x="520" y="1140" as="targetPoint" />
          </mxGeometry>
        </mxCell>
        <mxCell id="sgHpyDjpw01S7iKvmFFo-101" value="" style="endArrow=none;html=1;rounded=0;strokeWidth=0.2;" parent="1" edge="1">
          <mxGeometry width="50" height="50" relative="1" as="geometry">
            <mxPoint x="520" y="1150" as="sourcePoint" />
            <mxPoint x="530" y="1140" as="targetPoint" />
          </mxGeometry>
        </mxCell>
        <mxCell id="sgHpyDjpw01S7iKvmFFo-132" value="" style="endArrow=none;html=1;rounded=0;strokeWidth=0.2;" parent="1" edge="1">
          <mxGeometry width="50" height="50" relative="1" as="geometry">
            <mxPoint x="530" y="1150" as="sourcePoint" />
            <mxPoint x="540" y="1140" as="targetPoint" />
          </mxGeometry>
        </mxCell>
        <mxCell id="sgHpyDjpw01S7iKvmFFo-133" value="" style="endArrow=none;html=1;rounded=0;strokeWidth=0.2;" parent="1" edge="1">
          <mxGeometry width="50" height="50" relative="1" as="geometry">
            <mxPoint x="540" y="1150" as="sourcePoint" />
            <mxPoint x="550" y="1140" as="targetPoint" />
          </mxGeometry>
        </mxCell>
        <mxCell id="sgHpyDjpw01S7iKvmFFo-134" value="" style="endArrow=none;html=1;rounded=0;strokeWidth=0.2;" parent="1" edge="1">
          <mxGeometry width="50" height="50" relative="1" as="geometry">
            <mxPoint x="550" y="1150" as="sourcePoint" />
            <mxPoint x="560" y="1140" as="targetPoint" />
          </mxGeometry>
        </mxCell>
        <mxCell id="sgHpyDjpw01S7iKvmFFo-135" value="" style="endArrow=none;html=1;rounded=0;strokeWidth=0.2;" parent="1" edge="1">
          <mxGeometry width="50" height="50" relative="1" as="geometry">
            <mxPoint x="560" y="1150" as="sourcePoint" />
            <mxPoint x="570" y="1140" as="targetPoint" />
          </mxGeometry>
        </mxCell>
        <mxCell id="sgHpyDjpw01S7iKvmFFo-136" value="" style="endArrow=none;html=1;rounded=0;strokeWidth=0.2;" parent="1" edge="1">
          <mxGeometry width="50" height="50" relative="1" as="geometry">
            <mxPoint x="570" y="1150" as="sourcePoint" />
            <mxPoint x="580" y="1140" as="targetPoint" />
          </mxGeometry>
        </mxCell>
        <mxCell id="sgHpyDjpw01S7iKvmFFo-137" value="" style="endArrow=none;html=1;rounded=0;strokeWidth=0.2;" parent="1" edge="1">
          <mxGeometry width="50" height="50" relative="1" as="geometry">
            <mxPoint x="580" y="1150" as="sourcePoint" />
            <mxPoint x="590" y="1140" as="targetPoint" />
          </mxGeometry>
        </mxCell>
        <mxCell id="sgHpyDjpw01S7iKvmFFo-138" value="" style="endArrow=none;html=1;rounded=0;strokeWidth=0.2;" parent="1" edge="1">
          <mxGeometry width="50" height="50" relative="1" as="geometry">
            <mxPoint x="590" y="1150" as="sourcePoint" />
            <mxPoint x="600" y="1140" as="targetPoint" />
          </mxGeometry>
        </mxCell>
        <mxCell id="sgHpyDjpw01S7iKvmFFo-139" value="" style="endArrow=none;html=1;rounded=0;strokeWidth=0.2;" parent="1" edge="1">
          <mxGeometry width="50" height="50" relative="1" as="geometry">
            <mxPoint x="600" y="1150" as="sourcePoint" />
            <mxPoint x="610" y="1140" as="targetPoint" />
          </mxGeometry>
        </mxCell>
        <mxCell id="sgHpyDjpw01S7iKvmFFo-140" value="" style="endArrow=none;html=1;rounded=0;strokeWidth=0.2;" parent="1" edge="1">
          <mxGeometry width="50" height="50" relative="1" as="geometry">
            <mxPoint x="610" y="1150" as="sourcePoint" />
            <mxPoint x="620" y="1140" as="targetPoint" />
          </mxGeometry>
        </mxCell>
        <mxCell id="sgHpyDjpw01S7iKvmFFo-141" value="" style="endArrow=none;html=1;rounded=0;strokeWidth=0.2;" parent="1" edge="1">
          <mxGeometry width="50" height="50" relative="1" as="geometry">
            <mxPoint x="620" y="1150" as="sourcePoint" />
            <mxPoint x="630" y="1140" as="targetPoint" />
          </mxGeometry>
        </mxCell>
        <mxCell id="sgHpyDjpw01S7iKvmFFo-142" value="" style="endArrow=none;html=1;rounded=0;strokeWidth=0.2;" parent="1" edge="1">
          <mxGeometry width="50" height="50" relative="1" as="geometry">
            <mxPoint x="630" y="1150" as="sourcePoint" />
            <mxPoint x="640" y="1140" as="targetPoint" />
          </mxGeometry>
        </mxCell>
        <mxCell id="sgHpyDjpw01S7iKvmFFo-143" value="" style="endArrow=none;html=1;rounded=0;strokeWidth=0.2;" parent="1" edge="1">
          <mxGeometry width="50" height="50" relative="1" as="geometry">
            <mxPoint x="640" y="1150" as="sourcePoint" />
            <mxPoint x="650" y="1140" as="targetPoint" />
          </mxGeometry>
        </mxCell>
        <mxCell id="sgHpyDjpw01S7iKvmFFo-144" value="" style="endArrow=none;html=1;rounded=0;strokeWidth=0.2;" parent="1" edge="1">
          <mxGeometry width="50" height="50" relative="1" as="geometry">
            <mxPoint x="650" y="1150" as="sourcePoint" />
            <mxPoint x="660" y="1140" as="targetPoint" />
          </mxGeometry>
        </mxCell>
        <mxCell id="sgHpyDjpw01S7iKvmFFo-145" value="" style="endArrow=none;html=1;rounded=0;strokeWidth=0.2;" parent="1" edge="1">
          <mxGeometry width="50" height="50" relative="1" as="geometry">
            <mxPoint x="660" y="1150" as="sourcePoint" />
            <mxPoint x="670" y="1140" as="targetPoint" />
          </mxGeometry>
        </mxCell>
        <mxCell id="sgHpyDjpw01S7iKvmFFo-146" value="" style="endArrow=none;html=1;rounded=0;strokeWidth=0.2;" parent="1" edge="1">
          <mxGeometry width="50" height="50" relative="1" as="geometry">
            <mxPoint x="670" y="1150" as="sourcePoint" />
            <mxPoint x="680" y="1140" as="targetPoint" />
          </mxGeometry>
        </mxCell>
        <mxCell id="sgHpyDjpw01S7iKvmFFo-147" value="" style="endArrow=none;html=1;rounded=0;strokeWidth=0.2;" parent="1" edge="1">
          <mxGeometry width="50" height="50" relative="1" as="geometry">
            <mxPoint x="680" y="1150" as="sourcePoint" />
            <mxPoint x="690" y="1140" as="targetPoint" />
          </mxGeometry>
        </mxCell>
        <mxCell id="sgHpyDjpw01S7iKvmFFo-148" value="" style="endArrow=none;html=1;rounded=0;strokeWidth=0.2;" parent="1" edge="1">
          <mxGeometry width="50" height="50" relative="1" as="geometry">
            <mxPoint x="690" y="1150" as="sourcePoint" />
            <mxPoint x="700" y="1140" as="targetPoint" />
          </mxGeometry>
        </mxCell>
        <mxCell id="sgHpyDjpw01S7iKvmFFo-149" value="" style="endArrow=none;html=1;rounded=0;strokeWidth=0.2;" parent="1" edge="1">
          <mxGeometry width="50" height="50" relative="1" as="geometry">
            <mxPoint x="700" y="1150" as="sourcePoint" />
            <mxPoint x="710" y="1140" as="targetPoint" />
          </mxGeometry>
        </mxCell>
        <mxCell id="sgHpyDjpw01S7iKvmFFo-150" value="" style="endArrow=none;html=1;rounded=0;strokeWidth=0.2;" parent="1" edge="1">
          <mxGeometry width="50" height="50" relative="1" as="geometry">
            <mxPoint x="710" y="1150" as="sourcePoint" />
            <mxPoint x="720" y="1140" as="targetPoint" />
          </mxGeometry>
        </mxCell>
        <mxCell id="sgHpyDjpw01S7iKvmFFo-167" value="" style="endArrow=none;html=1;rounded=0;strokeWidth=3;" parent="1" edge="1">
          <mxGeometry width="50" height="50" relative="1" as="geometry">
            <mxPoint x="360" y="270" as="sourcePoint" />
            <mxPoint x="350" y="270" as="targetPoint" />
          </mxGeometry>
        </mxCell>
        <mxCell id="sgHpyDjpw01S7iKvmFFo-168" value="" style="endArrow=none;html=1;rounded=0;strokeWidth=3;" parent="1" edge="1">
          <mxGeometry width="50" height="50" relative="1" as="geometry">
            <mxPoint x="360" y="410" as="sourcePoint" />
            <mxPoint x="350" y="410" as="targetPoint" />
          </mxGeometry>
        </mxCell>
        <mxCell id="sgHpyDjpw01S7iKvmFFo-171" style="edgeStyle=orthogonalEdgeStyle;rounded=0;orthogonalLoop=1;jettySize=auto;html=1;exitX=0;exitY=0.5;exitDx=0;exitDy=0;entryX=1;entryY=0.5;entryDx=0;entryDy=0;" parent="1" source="sgHpyDjpw01S7iKvmFFo-169" target="sgHpyDjpw01S7iKvmFFo-71" edge="1">
          <mxGeometry relative="1" as="geometry" />
        </mxCell>
        <mxCell id="sgHpyDjpw01S7iKvmFFo-169" value="Power supply" style="text;html=1;align=center;verticalAlign=middle;whiteSpace=wrap;rounded=0;" parent="1" vertex="1">
          <mxGeometry x="610" y="1085" width="80" height="30" as="geometry" />
        </mxCell>
        <mxCell id="sgHpyDjpw01S7iKvmFFo-173" value="" style="endArrow=none;html=1;rounded=0;strokeWidth=3;" parent="1" edge="1">
          <mxGeometry width="50" height="50" relative="1" as="geometry">
            <mxPoint x="420" y="1140" as="sourcePoint" />
            <mxPoint x="420" y="1130" as="targetPoint" />
          </mxGeometry>
        </mxCell>
        <mxCell id="sgHpyDjpw01S7iKvmFFo-174" value="" style="endArrow=none;html=1;rounded=0;strokeWidth=3;" parent="1" edge="1">
          <mxGeometry width="50" height="50" relative="1" as="geometry">
            <mxPoint x="520" y="1140" as="sourcePoint" />
            <mxPoint x="520" y="1130" as="targetPoint" />
          </mxGeometry>
        </mxCell>
      </root>
    </mxGraphModel>
  </diagram>
</mxfile>
